<mxfile host="65bd71144e">
    <diagram id="78Jm8NTUC8t-EwOBHktt" name="Page-1">
        <mxGraphModel dx="2039" dy="1904" grid="1" gridSize="10" guides="1" tooltips="1" connect="1" arrows="1" fold="1" page="1" pageScale="1" pageWidth="850" pageHeight="1100" math="0" shadow="0">
            <root>
                <mxCell id="0"/>
                <mxCell id="1" parent="0"/>
                <mxCell id="4" value="&amp;lt;&amp;lt;Abstract&amp;gt;&amp;gt;&lt;br&gt;&lt;b&gt;LogicGate&lt;/b&gt;" style="swimlane;fontStyle=0;align=center;verticalAlign=top;childLayout=stackLayout;horizontal=1;startSize=40;horizontalStack=0;resizeParent=1;resizeParentMax=0;resizeLast=0;collapsible=0;marginBottom=0;html=1;" parent="1" vertex="1">
                    <mxGeometry x="50" y="-30" width="390" height="190" as="geometry"/>
                </mxCell>
                <mxCell id="5" value="attributes" style="text;html=1;strokeColor=none;fillColor=none;align=center;verticalAlign=middle;spacingLeft=4;spacingRight=4;overflow=hidden;rotatable=0;points=[[0,0.5],[1,0.5]];portConstraint=eastwest;" parent="4" vertex="1">
                    <mxGeometry y="40" width="390" height="20" as="geometry"/>
                </mxCell>
                <mxCell id="6" value="+ GateName : string&lt;br&gt;+ Inputs : List&amp;lt;int&amp;gt;" style="text;html=1;strokeColor=none;fillColor=none;align=left;verticalAlign=middle;spacingLeft=4;spacingRight=4;overflow=hidden;rotatable=0;points=[[0,0.5],[1,0.5]];portConstraint=eastwest;" parent="4" vertex="1">
                    <mxGeometry y="60" width="390" height="40" as="geometry"/>
                </mxCell>
                <mxCell id="9" value="" style="line;strokeWidth=1;fillColor=none;align=left;verticalAlign=middle;spacingTop=-1;spacingLeft=3;spacingRight=3;rotatable=0;labelPosition=right;points=[];portConstraint=eastwest;" parent="4" vertex="1">
                    <mxGeometry y="100" width="390" height="8" as="geometry"/>
                </mxCell>
                <mxCell id="10" value="operations" style="text;html=1;strokeColor=none;fillColor=none;align=center;verticalAlign=middle;spacingLeft=4;spacingRight=4;overflow=hidden;rotatable=0;points=[[0,0.5],[1,0.5]];portConstraint=eastwest;" parent="4" vertex="1">
                    <mxGeometry y="108" width="390" height="20" as="geometry"/>
                </mxCell>
                <mxCell id="11" value="+ AddNewIntInput (myInput : string, value : int) : void&amp;nbsp;&lt;br&gt;+ &lt;i&gt;ExitCalculator () : int&lt;br&gt;+ ValidateInputs () : bool&lt;br&gt;&lt;br&gt;&lt;/i&gt;" style="text;html=1;strokeColor=none;fillColor=none;align=left;verticalAlign=middle;spacingLeft=4;spacingRight=4;overflow=hidden;rotatable=0;points=[[0,0.5],[1,0.5]];portConstraint=eastwest;" parent="4" vertex="1">
                    <mxGeometry y="128" width="390" height="62" as="geometry"/>
                </mxCell>
                <mxCell id="34" value="" style="endArrow=block;html=1;rounded=0;align=center;verticalAlign=bottom;endFill=0;labelBackgroundColor=none;endSize=8;" parent="1" edge="1">
                    <mxGeometry relative="1" as="geometry">
                        <mxPoint x="235.29000000000002" y="230" as="sourcePoint"/>
                        <mxPoint x="235.29000000000002" y="180" as="targetPoint"/>
                    </mxGeometry>
                </mxCell>
                <mxCell id="37" value="" style="html=1;verticalAlign=bottom;labelBackgroundColor=none;endArrow=none;endFill=0;endSize=6;align=left;" parent="1" edge="1">
                    <mxGeometry x="-1" relative="1" as="geometry">
                        <mxPoint x="-370" y="230" as="sourcePoint"/>
                        <mxPoint x="860" y="230" as="targetPoint"/>
                    </mxGeometry>
                </mxCell>
                <mxCell id="38" value="" style="html=1;verticalAlign=bottom;labelBackgroundColor=none;endArrow=none;endFill=0;endSize=6;align=left;entryX=0.5;entryY=0;entryDx=0;entryDy=0;" parent="1" edge="1">
                    <mxGeometry x="-1" relative="1" as="geometry">
                        <mxPoint x="33" y="230" as="sourcePoint"/>
                        <mxPoint x="33" y="310" as="targetPoint"/>
                    </mxGeometry>
                </mxCell>
                <mxCell id="39" value="" style="html=1;verticalAlign=bottom;labelBackgroundColor=none;endArrow=none;endFill=0;endSize=6;align=left;entryX=0.5;entryY=0;entryDx=0;entryDy=0;" parent="1" edge="1">
                    <mxGeometry x="-1" relative="1" as="geometry">
                        <mxPoint x="444" y="230" as="sourcePoint"/>
                        <mxPoint x="444" y="310" as="targetPoint"/>
                    </mxGeometry>
                </mxCell>
                <mxCell id="40" value="" style="html=1;verticalAlign=bottom;labelBackgroundColor=none;endArrow=none;endFill=0;endSize=6;align=left;entryX=0.5;entryY=0;entryDx=0;entryDy=0;" parent="1" edge="1">
                    <mxGeometry x="-1" relative="1" as="geometry">
                        <mxPoint x="859.9999999999998" y="230" as="sourcePoint"/>
                        <mxPoint x="859.9999999999998" y="310" as="targetPoint"/>
                    </mxGeometry>
                </mxCell>
                <mxCell id="72" value="&lt;b&gt;GarageGate&lt;/b&gt;" style="swimlane;fontStyle=0;align=center;verticalAlign=top;childLayout=stackLayout;horizontal=1;startSize=30;horizontalStack=0;resizeParent=1;resizeParentMax=0;resizeLast=0;collapsible=0;marginBottom=0;html=1;" parent="1" vertex="1">
                    <mxGeometry x="-570" y="310" width="390" height="230" as="geometry"/>
                </mxCell>
                <mxCell id="73" value="attributes" style="text;html=1;strokeColor=none;fillColor=none;align=center;verticalAlign=middle;spacingLeft=4;spacingRight=4;overflow=hidden;rotatable=0;points=[[0,0.5],[1,0.5]];portConstraint=eastwest;" parent="72" vertex="1">
                    <mxGeometry y="30" width="390" height="20" as="geometry"/>
                </mxCell>
                <mxCell id="74" value="+ GateName : string&lt;br&gt;+ Inputs : List&amp;lt;int&amp;gt;&lt;br&gt;+ ButtonAStatus : int&lt;br&gt;+ ButtonBStatus : int&lt;br&gt;+ ButtonCStatus : int" style="text;html=1;strokeColor=none;fillColor=none;align=left;verticalAlign=middle;spacingLeft=4;spacingRight=4;overflow=hidden;rotatable=0;points=[[0,0.5],[1,0.5]];portConstraint=eastwest;" parent="72" vertex="1">
                    <mxGeometry y="50" width="390" height="90" as="geometry"/>
                </mxCell>
                <mxCell id="75" value="" style="line;strokeWidth=1;fillColor=none;align=left;verticalAlign=middle;spacingTop=-1;spacingLeft=3;spacingRight=3;rotatable=0;labelPosition=right;points=[];portConstraint=eastwest;" parent="72" vertex="1">
                    <mxGeometry y="140" width="390" height="8" as="geometry"/>
                </mxCell>
                <mxCell id="76" value="operations" style="text;html=1;strokeColor=none;fillColor=none;align=center;verticalAlign=middle;spacingLeft=4;spacingRight=4;overflow=hidden;rotatable=0;points=[[0,0.5],[1,0.5]];portConstraint=eastwest;" parent="72" vertex="1">
                    <mxGeometry y="148" width="390" height="20" as="geometry"/>
                </mxCell>
                <mxCell id="100" value="+ AddNewIntInput (myInput : string, value : int) : void&amp;nbsp;&lt;br&gt;+ &lt;i&gt;ExitCalculator () : int&lt;br&gt;+ ValidateInputs () : bool&lt;br&gt;&lt;br&gt;&lt;/i&gt;" style="text;html=1;strokeColor=none;fillColor=none;align=left;verticalAlign=middle;spacingLeft=4;spacingRight=4;overflow=hidden;rotatable=0;points=[[0,0.5],[1,0.5]];portConstraint=eastwest;" vertex="1" parent="72">
                    <mxGeometry y="168" width="390" height="62" as="geometry"/>
                </mxCell>
                <mxCell id="78" value="" style="html=1;verticalAlign=bottom;labelBackgroundColor=none;endArrow=none;endFill=0;endSize=6;align=left;entryX=0.5;entryY=0;entryDx=0;entryDy=0;" parent="1" edge="1">
                    <mxGeometry x="-1" relative="1" as="geometry">
                        <mxPoint x="-369" y="230" as="sourcePoint"/>
                        <mxPoint x="-369" y="310" as="targetPoint"/>
                    </mxGeometry>
                </mxCell>
                <mxCell id="79" value="" style="endArrow=open;startArrow=none;endFill=0;startFill=0;endSize=8;html=1;verticalAlign=bottom;dashed=1;labelBackgroundColor=none;exitX=1;exitY=0.5;exitDx=0;exitDy=0;" parent="1" edge="1" source="100">
                    <mxGeometry width="160" relative="1" as="geometry">
                        <mxPoint x="-180" y="525" as="sourcePoint"/>
                        <mxPoint x="34" y="490" as="targetPoint"/>
                        <Array as="points">
                            <mxPoint x="34" y="510"/>
                        </Array>
                    </mxGeometry>
                </mxCell>
                <mxCell id="80" value="" style="endArrow=open;startArrow=none;endFill=0;startFill=0;endSize=8;html=1;verticalAlign=bottom;dashed=1;labelBackgroundColor=none;exitX=1.006;exitY=0.781;exitDx=0;exitDy=0;exitPerimeter=0;" parent="1" source="100" edge="1">
                    <mxGeometry width="160" relative="1" as="geometry">
                        <mxPoint x="-180" y="509" as="sourcePoint"/>
                        <mxPoint x="440" y="490" as="targetPoint"/>
                        <Array as="points">
                            <mxPoint x="440" y="526"/>
                        </Array>
                    </mxGeometry>
                </mxCell>
                <mxCell id="81" value="" style="endArrow=open;startArrow=none;endFill=0;startFill=0;endSize=8;html=1;verticalAlign=bottom;dashed=1;labelBackgroundColor=none;" parent="1" edge="1">
                    <mxGeometry width="160" relative="1" as="geometry">
                        <mxPoint x="-180" y="539" as="sourcePoint"/>
                        <mxPoint x="880" y="500" as="targetPoint"/>
                        <Array as="points">
                            <mxPoint x="879" y="540"/>
                        </Array>
                    </mxGeometry>
                </mxCell>
                <mxCell id="82" value="&lt;b&gt;AndGate&lt;/b&gt;" style="swimlane;fontStyle=0;align=center;verticalAlign=top;childLayout=stackLayout;horizontal=1;startSize=30;horizontalStack=0;resizeParent=1;resizeParentMax=0;resizeLast=0;collapsible=0;marginBottom=0;html=1;" parent="1" vertex="1">
                    <mxGeometry x="-160" y="310" width="390" height="180" as="geometry"/>
                </mxCell>
                <mxCell id="83" value="attributes" style="text;html=1;strokeColor=none;fillColor=none;align=center;verticalAlign=middle;spacingLeft=4;spacingRight=4;overflow=hidden;rotatable=0;points=[[0,0.5],[1,0.5]];portConstraint=eastwest;" parent="82" vertex="1">
                    <mxGeometry y="30" width="390" height="20" as="geometry"/>
                </mxCell>
                <mxCell id="84" value="+ GateName : string&lt;br&gt;+ Inputs : List&amp;lt;int&amp;gt;" style="text;html=1;strokeColor=none;fillColor=none;align=left;verticalAlign=middle;spacingLeft=4;spacingRight=4;overflow=hidden;rotatable=0;points=[[0,0.5],[1,0.5]];portConstraint=eastwest;" parent="82" vertex="1">
                    <mxGeometry y="50" width="390" height="40" as="geometry"/>
                </mxCell>
                <mxCell id="85" value="" style="line;strokeWidth=1;fillColor=none;align=left;verticalAlign=middle;spacingTop=-1;spacingLeft=3;spacingRight=3;rotatable=0;labelPosition=right;points=[];portConstraint=eastwest;" parent="82" vertex="1">
                    <mxGeometry y="90" width="390" height="8" as="geometry"/>
                </mxCell>
                <mxCell id="86" value="operations" style="text;html=1;strokeColor=none;fillColor=none;align=center;verticalAlign=middle;spacingLeft=4;spacingRight=4;overflow=hidden;rotatable=0;points=[[0,0.5],[1,0.5]];portConstraint=eastwest;" parent="82" vertex="1">
                    <mxGeometry y="98" width="390" height="20" as="geometry"/>
                </mxCell>
                <mxCell id="87" value="+ AddNewIntInput (myInput : string, value : int) : void&amp;nbsp;&lt;br&gt;+ &lt;i&gt;ExitCalculator () : int&lt;br&gt;+ ValidateInputs () : bool&lt;br&gt;&lt;br&gt;&lt;/i&gt;" style="text;html=1;strokeColor=none;fillColor=none;align=left;verticalAlign=middle;spacingLeft=4;spacingRight=4;overflow=hidden;rotatable=0;points=[[0,0.5],[1,0.5]];portConstraint=eastwest;" parent="82" vertex="1">
                    <mxGeometry y="118" width="390" height="62" as="geometry"/>
                </mxCell>
                <mxCell id="88" value="&lt;b&gt;NotGate&lt;/b&gt;" style="swimlane;fontStyle=0;align=center;verticalAlign=top;childLayout=stackLayout;horizontal=1;startSize=30;horizontalStack=0;resizeParent=1;resizeParentMax=0;resizeLast=0;collapsible=0;marginBottom=0;html=1;" parent="1" vertex="1">
                    <mxGeometry x="250" y="310" width="390" height="180" as="geometry"/>
                </mxCell>
                <mxCell id="89" value="attributes" style="text;html=1;strokeColor=none;fillColor=none;align=center;verticalAlign=middle;spacingLeft=4;spacingRight=4;overflow=hidden;rotatable=0;points=[[0,0.5],[1,0.5]];portConstraint=eastwest;" parent="88" vertex="1">
                    <mxGeometry y="30" width="390" height="20" as="geometry"/>
                </mxCell>
                <mxCell id="90" value="+ GateName : string&lt;br&gt;+ Inputs : List&amp;lt;int&amp;gt;" style="text;html=1;strokeColor=none;fillColor=none;align=left;verticalAlign=middle;spacingLeft=4;spacingRight=4;overflow=hidden;rotatable=0;points=[[0,0.5],[1,0.5]];portConstraint=eastwest;" parent="88" vertex="1">
                    <mxGeometry y="50" width="390" height="40" as="geometry"/>
                </mxCell>
                <mxCell id="91" value="" style="line;strokeWidth=1;fillColor=none;align=left;verticalAlign=middle;spacingTop=-1;spacingLeft=3;spacingRight=3;rotatable=0;labelPosition=right;points=[];portConstraint=eastwest;" parent="88" vertex="1">
                    <mxGeometry y="90" width="390" height="8" as="geometry"/>
                </mxCell>
                <mxCell id="92" value="operations" style="text;html=1;strokeColor=none;fillColor=none;align=center;verticalAlign=middle;spacingLeft=4;spacingRight=4;overflow=hidden;rotatable=0;points=[[0,0.5],[1,0.5]];portConstraint=eastwest;" parent="88" vertex="1">
                    <mxGeometry y="98" width="390" height="20" as="geometry"/>
                </mxCell>
                <mxCell id="93" value="+ AddNewIntInput (myInput : string, value : int) : void&amp;nbsp;&lt;br&gt;+ &lt;i&gt;ExitCalculator () : int&lt;br&gt;+ ValidateInputs () : bool&lt;br&gt;&lt;br&gt;&lt;/i&gt;" style="text;html=1;strokeColor=none;fillColor=none;align=left;verticalAlign=middle;spacingLeft=4;spacingRight=4;overflow=hidden;rotatable=0;points=[[0,0.5],[1,0.5]];portConstraint=eastwest;" parent="88" vertex="1">
                    <mxGeometry y="118" width="390" height="62" as="geometry"/>
                </mxCell>
                <mxCell id="94" value="&lt;b&gt;OrGate&lt;/b&gt;" style="swimlane;fontStyle=0;align=center;verticalAlign=top;childLayout=stackLayout;horizontal=1;startSize=30;horizontalStack=0;resizeParent=1;resizeParentMax=0;resizeLast=0;collapsible=0;marginBottom=0;html=1;" parent="1" vertex="1">
                    <mxGeometry x="670" y="310" width="390" height="180" as="geometry"/>
                </mxCell>
                <mxCell id="95" value="attributes" style="text;html=1;strokeColor=none;fillColor=none;align=center;verticalAlign=middle;spacingLeft=4;spacingRight=4;overflow=hidden;rotatable=0;points=[[0,0.5],[1,0.5]];portConstraint=eastwest;" parent="94" vertex="1">
                    <mxGeometry y="30" width="390" height="20" as="geometry"/>
                </mxCell>
                <mxCell id="96" value="+ GateName : string&lt;br&gt;+ Inputs : List&amp;lt;int&amp;gt;" style="text;html=1;strokeColor=none;fillColor=none;align=left;verticalAlign=middle;spacingLeft=4;spacingRight=4;overflow=hidden;rotatable=0;points=[[0,0.5],[1,0.5]];portConstraint=eastwest;" parent="94" vertex="1">
                    <mxGeometry y="50" width="390" height="40" as="geometry"/>
                </mxCell>
                <mxCell id="97" value="" style="line;strokeWidth=1;fillColor=none;align=left;verticalAlign=middle;spacingTop=-1;spacingLeft=3;spacingRight=3;rotatable=0;labelPosition=right;points=[];portConstraint=eastwest;" parent="94" vertex="1">
                    <mxGeometry y="90" width="390" height="8" as="geometry"/>
                </mxCell>
                <mxCell id="98" value="operations" style="text;html=1;strokeColor=none;fillColor=none;align=center;verticalAlign=middle;spacingLeft=4;spacingRight=4;overflow=hidden;rotatable=0;points=[[0,0.5],[1,0.5]];portConstraint=eastwest;" parent="94" vertex="1">
                    <mxGeometry y="98" width="390" height="20" as="geometry"/>
                </mxCell>
                <mxCell id="99" value="+ AddNewIntInput (myInput : string, value : int) : void&amp;nbsp;&lt;br&gt;+ &lt;i&gt;ExitCalculator () : int&lt;br&gt;+ ValidateInputs () : bool&lt;br&gt;&lt;br&gt;&lt;/i&gt;" style="text;html=1;strokeColor=none;fillColor=none;align=left;verticalAlign=middle;spacingLeft=4;spacingRight=4;overflow=hidden;rotatable=0;points=[[0,0.5],[1,0.5]];portConstraint=eastwest;" parent="94" vertex="1">
                    <mxGeometry y="118" width="390" height="62" as="geometry"/>
                </mxCell>
            </root>
        </mxGraphModel>
    </diagram>
</mxfile>